<?xml version="1.0" standalone="no"?><!DOCTYPE svg PUBLIC "-//W3C//DTD SVG 1.1//EN" "http://www.w3.org/Graphics/SVG/1.1/DTD/svg11.dtd"><svg t="1550417730595" class="icon" style="" viewBox="0 0 1024 1024" version="1.1" xmlns="http://www.w3.org/2000/svg" p-id="1884" xmlns:xlink="http://www.w3.org/1999/xlink" width="200" height="200"><defs><style type="text/css"></style></defs><path d="M128 320A106.666667 106.666667 0 0 1 234.666667 213.333333h85.333333a106.666667 106.666667 0 0 1 104.533333 85.333334H810.666667a85.333333 85.333333 0 0 1 85.333333 85.333333v341.333333a85.333333 85.333333 0 0 1-85.333333 85.333334H213.333333a85.333333 85.333333 0 0 1-85.333333-85.333334V320zM490.666667 213.333333a21.333333 21.333333 0 1 0 0 42.666667h298.666666a21.333333 21.333333 0 1 0 0-42.666667h-298.666666z" p-id="1885" fill="#515151"></path></svg>