<?xml version="1.0" standalone="no"?><!DOCTYPE svg PUBLIC "-//W3C//DTD SVG 1.1//EN" "http://www.w3.org/Graphics/SVG/1.1/DTD/svg11.dtd"><svg t="1550461318550" class="icon" style="" viewBox="0 0 1024 1024" version="1.1" xmlns="http://www.w3.org/2000/svg" p-id="5111" xmlns:xlink="http://www.w3.org/1999/xlink" width="200" height="200"><defs><style type="text/css"></style></defs><path d="M441.6 220.8H264c-24 0-43.2 19.2-43.2 43.2v177.6c0 24 19.2 43.2 43.2 43.2h177.6c24 0 43.2-19.2 43.2-43.2V262.4c0-22.4-19.2-41.6-43.2-41.6z m3.2 220.8c0 1.6-1.6 3.2-3.2 3.2H264c-1.6 0-3.2-1.6-3.2-3.2V262.4c0-1.6 1.6-3.2 3.2-3.2h177.6c1.6 0 3.2 1.6 3.2 3.2v179.2zM761.6 220.8H584c-24 0-43.2 19.2-43.2 43.2v177.6c0 24 19.2 43.2 43.2 43.2h177.6c24 0 43.2-19.2 43.2-43.2V262.4c0-22.4-19.2-41.6-43.2-41.6z m3.2 220.8c0 1.6-1.6 3.2-3.2 3.2H584c-1.6 0-3.2-1.6-3.2-3.2V262.4c0-1.6 1.6-3.2 3.2-3.2h177.6c1.6 0 3.2 1.6 3.2 3.2v179.2zM441.6 540.8H264c-24 0-43.2 19.2-43.2 43.2v177.6c0 24 19.2 43.2 43.2 43.2h177.6c24 0 43.2-19.2 43.2-43.2V582.4c0-22.4-19.2-41.6-43.2-41.6z m3.2 220.8c0 1.6-1.6 3.2-3.2 3.2H264c-1.6 0-3.2-1.6-3.2-3.2V582.4c0-1.6 1.6-3.2 3.2-3.2h177.6c1.6 0 3.2 1.6 3.2 3.2v179.2zM672 540.8c-72 0-131.2 59.2-131.2 131.2s59.2 131.2 131.2 131.2 131.2-59.2 131.2-131.2-57.6-131.2-131.2-131.2z m0 224c-51.2 0-92.8-41.6-92.8-92.8s41.6-92.8 92.8-92.8 92.8 41.6 92.8 92.8-41.6 92.8-92.8 92.8z" fill="#515151" p-id="5112"></path></svg>