<?xml version="1.0" standalone="no"?><!DOCTYPE svg PUBLIC "-//W3C//DTD SVG 1.1//EN" "http://www.w3.org/Graphics/SVG/1.1/DTD/svg11.dtd"><svg class="icon" width="200px" height="200.00px" viewBox="0 0 1024 1024" version="1.1" xmlns="http://www.w3.org/2000/svg"><path d="M994.377154 970.241704a89.210032 89.210032 0 0 1-20.287022 28.54721 91.060315 91.060315 0 0 1-28.679373 18.43674 93.736616 93.736616 0 0 1-35.056239 6.773355H113.015075a93.340126 93.340126 0 0 1-34.957116-6.608151 90.994233 90.994233 0 0 1-28.9437-18.601944 87.657117 87.657117 0 0 1-19.824451-28.150721 86.765017 86.765017 0 0 1-7.599374-35.55185v-534.268972a86.632854 86.632854 0 0 1 7.467211-35.287523 88.615299 88.615299 0 0 1 20.253981-28.547211 90.86207 90.86207 0 0 1 28.712414-18.43674 92.976678 92.976678 0 0 1 35.056239-6.773354h199.334861v89.044828H113.015075l-2.345893 534.268972h799.586216l2.345893-22.269467v-512.131668h-201.548591V311.64038h199.334861a92.514108 92.514108 0 0 1 34.924075 6.60815 91.522885 91.522885 0 0 1 28.976741 18.601944 88.912666 88.912666 0 0 1 19.989655 28.117681 87.524954 87.524954 0 0 1 7.566332 35.58489v534.268972a87.161506 87.161506 0 0 1-7.46721 35.419687z m-660.815054-369.230412h133.682885V-0.033041h89.210032v601.044333h133.682886l-178.22182 200.359125z" fill="#515151" /></svg>