<?xml version="1.0" standalone="no"?><!DOCTYPE svg PUBLIC "-//W3C//DTD SVG 1.1//EN" "http://www.w3.org/Graphics/SVG/1.1/DTD/svg11.dtd"><svg class="icon" width="200px" height="200.00px" viewBox="0 0 1024 1024" version="1.1" xmlns="http://www.w3.org/2000/svg"><path d="M938.516167 597.182834 85.483833 597.182834C38.527925 597.182834 0 559.256908 0 511.699001c0-46.955908 37.925926-85.483833 85.483833-85.483833l853.032334 0c46.955908 0 85.483833 37.925926 85.483833 85.483833C1024 559.256908 986.074074 597.182834 938.516167 597.182834L938.516167 597.182834 938.516167 597.182834zM512.300999 1024c-46.955908 0-85.483833-37.925926-85.483833-85.483833L426.817166 85.483833C426.817166 37.925926 464.743092 0 512.300999 0c46.955908 0 85.483833 37.925926 85.483833 85.483833l0 853.634333C597.182834 985.472075 559.256908 1024 512.300999 1024L512.300999 1024 512.300999 1024zM512.300999 1024" fill="#515151" /></svg>